<svg width="250" height="125" viewBox="0 0 250 125" fill="none" xmlns="http://www.w3.org/2000/svg">
<path d="M24.6628 119.768V89.9801C27.7034 94.1104 34.0381 97.4897 42.6533 97.4897C60.2637 97.4897 72.0462 83.722 72.0462 65.073C72.0462 46.7995 61.5306 33.0317 43.2867 33.0317C33.9114 33.0317 26.9433 37.162 24.156 41.9182V34.4085H7.8125V119.768H24.6628ZM55.4493 65.1982C55.4493 76.2123 48.6079 82.5955 39.9927 82.5955C31.3775 82.5955 24.4094 76.0872 24.4094 65.1982C24.4094 54.3091 31.3775 47.9259 39.9927 47.9259C48.6079 47.9259 55.4493 54.3091 55.4493 65.1982Z" fill="url(#paint0_linear)"/>
<path d="M100.142 82.7207C91.9066 82.7207 84.305 76.713 84.305 65.1982C84.305 53.5582 91.9066 47.6756 100.142 47.6756C108.377 47.6756 115.978 53.5582 115.978 65.1982C115.978 76.8381 108.377 82.7207 100.142 82.7207ZM100.142 32.5311C81.5177 32.5311 67.4547 46.1736 67.4547 65.1982C67.4547 84.0975 81.5177 97.8652 100.142 97.8652C118.766 97.8652 132.829 84.0975 132.829 65.1982C132.829 46.1736 118.766 32.5311 100.142 32.5311Z" fill="url(#paint1_linear)"/>
<path d="M192.304 5.37109H175.707V40.5414C173.933 37.2872 168.865 32.9066 158.096 32.9066C140.486 32.9066 128.197 47.0498 128.197 65.073C128.197 83.722 140.866 97.4897 158.603 97.4897C166.965 97.4897 173.3 93.7349 176.087 88.8536C176.087 91.7323 176.467 94.7362 176.72 95.9878H192.81C192.557 93.4846 192.304 88.9788 192.304 84.8485V5.37109ZM145.174 65.073C145.174 54.0588 152.015 47.8007 160.63 47.8007C169.245 47.8007 175.96 53.9336 175.96 64.9478C175.96 76.0872 169.245 82.5955 160.63 82.5955C151.762 82.5955 145.174 76.0872 145.174 65.073Z" fill="url(#paint2_linear)"/>
<path d="M192.017 78.8407C192.777 85.8498 199.238 97.8652 217.989 97.8652C234.332 97.8652 242.187 87.602 242.187 77.5891C242.187 68.5775 235.979 61.193 223.69 58.6898L214.822 56.8123C211.401 56.1865 209.12 54.3091 209.12 51.3053C209.12 47.8007 212.668 45.1724 217.102 45.1724C224.197 45.1724 226.858 49.8033 227.364 53.433L241.427 50.304C240.667 43.6704 234.713 32.5311 216.975 32.5311C203.546 32.5311 193.664 41.6678 193.664 52.682C193.664 61.3181 199.112 68.4523 211.148 71.0807L219.383 72.9581C224.197 73.9594 226.097 76.2123 226.097 78.9659C226.097 82.2201 223.437 85.0988 217.862 85.0988C210.514 85.0988 206.84 80.593 206.46 75.7117L192.017 78.8407Z" fill="url(#paint3_linear)"/>
<defs>
<linearGradient id="paint0_linear" x1="258.75" y1="14.6372" x2="-10.5118" y2="61.8087" gradientUnits="userSpaceOnUse">
<stop stop-color="#DF1D2C"/>
<stop offset="1" stop-color="#B7156B"/>
</linearGradient>
<linearGradient id="paint1_linear" x1="258.75" y1="14.6372" x2="-10.5118" y2="61.8087" gradientUnits="userSpaceOnUse">
<stop stop-color="#DF1D2C"/>
<stop offset="1" stop-color="#B7156B"/>
</linearGradient>
<linearGradient id="paint2_linear" x1="258.75" y1="14.6372" x2="-10.5118" y2="61.8087" gradientUnits="userSpaceOnUse">
<stop stop-color="#DF1D2C"/>
<stop offset="1" stop-color="#B7156B"/>
</linearGradient>
<linearGradient id="paint3_linear" x1="258.75" y1="14.6372" x2="-10.5118" y2="61.8087" gradientUnits="userSpaceOnUse">
<stop stop-color="#DF1D2C"/>
<stop offset="1" stop-color="#B7156B"/>
</linearGradient>
</defs>
</svg>
